<svg xmlns="http://www.w3.org/2000/svg" width="210" height="80"><path d="M34.3 27.6h-1V25h-6.2v2.6H26c-6.8 0-11 3.4-11 9.4v1.1c0 6 4.2 9.3 11.1 9.3h1V50h6.2v-2.6h1c6.9 0 11.1-3.4 11.1-9.5v-1.1c0-6.2-4.3-9.4-11.1-9.4v.2zm-8.5 15.5c-3 0-4.6-1.9-4.6-5.3v-.5c0-3.4 1.6-5.3 4.6-5.3h1.4v11h-1.4v.1zm13.5-5.3c0 3.4-1.7 5.3-4.7 5.3h-1.2v-11h1.2c3 0 4.7 1.8 4.7 5.3v.4zm18.8-5.6c-6 0-10 3.7-10 9 0 5.4 4.1 9 10 9s10-3.6 10-9c0-5.3-4.1-9-10-9zm0 13.5c-2.6 0-4.3-1.8-4.3-4.5s1.7-4.5 4.3-4.5c2.5 0 4.3 1.8 4.3 4.5s-1.8 4.5-4.3 4.5zm32.6-13.2h-6.5l-6.8 8.1v-8.1h-5.6v17.3h5.6v-8.1l6.8 8.1h7l-7.9-9 7.4-8.3zm10.7 4.2c1.9 0 3.3 1.1 3.7 2.7h5.6c-.4-4.3-3.9-7.2-9.2-7.2-6 0-10 3.7-10 9 0 5.4 4 9 10.1 9 5.2 0 8.7-2.9 9-7.1h-5.5c-.5 1.6-2 2.8-3.7 2.7-2.5 0-4.2-1.9-4.2-4.5 0-2.8 1.7-4.6 4.2-4.6zm10.8-4.2v4.6h6.3v12.7h5.6V37.1h6.2v-4.5h-18l-.1-.1zm31.8-.1c-2.2 0-4.3.9-5.6 2.6v-2.5h-5.3V55h5.6v-7.2c1.3 1.3 3.2 2.2 5.3 2.2 5.2 0 8.7-3.7 8.7-8.9s-3.5-8.7-8.7-8.7zm-1.3 13.4c-2.5 0-4.3-1.9-4.3-4.5 0-2.8 1.8-4.6 4.3-4.6 2.6 0 4.3 1.8 4.3 4.5s-1.7 4.5-4.3 4.5v.1zm22.7-13.6c-6 0-10 3.7-10 9 0 5.4 4.1 9 10 9 6 0 10-3.6 10-9 0-5.3-4.1-9-10.1-9h.1zm0 13.5c-2.6 0-4.3-1.8-4.3-4.5s1.7-4.5 4.3-4.5c2.5 0 4.3 1.8 4.3 4.5s-1.8 4.5-4.3 4.5zM177 32.5v4.6h6.2v12.7h5.6V37.1h6.2v-4.5h-18v-.1z" fill="#fe5000"/></svg>