<svg width="51" height="62" viewBox="0 0 71 69" fill="none" xmlns="http://www.w3.org/2000/svg">
<g clip-path="url(#clip0_612_8825)">
<path d="M34.9288 68.9935C26.6817 68.7655 18.3867 68.0609 10.42 65.2108C7.54251 64.1825 4.82007 62.9034 2.57874 60.7304C0.572248 58.7832 -0.218947 56.4712 0.0523852 53.7077C0.526646 48.8693 0.893743 44.0219 1.61425 39.204C2.56477 32.8613 3.87566 26.5778 5.54059 20.3841C6.56891 16.5489 7.82068 12.7845 9.10438 9.03146C9.64476 7.46275 10.0871 7.34419 11.3024 8.39987C12.5177 9.45556 13.9747 9.83177 15.4545 10.1555C20.4707 11.2523 25.5644 11.494 30.6604 11.8109C37.1975 12.219 43.6866 11.6969 50.1781 11.0083C52.5836 10.7529 54.9663 10.4611 57.2669 9.65849C58.2086 9.33015 59.1389 8.97446 59.8776 8.24711C60.7304 7.40347 61.3232 7.52887 61.7769 8.68716C62.3036 10.0347 62.7688 11.4096 63.2157 12.7913C66.6339 23.2956 68.9665 34.1226 70.1768 45.1026C70.4938 47.9801 70.5872 50.885 70.9293 53.767C71.367 57.4357 69.7185 60.0167 66.9049 62.046C63.7424 64.3261 60.1034 65.5209 56.3891 66.5127C49.4006 68.3801 42.2502 68.8704 34.9288 68.9935Z" fill="#FBCA08"/>
<path d="M39.0785 0.0274011C43.4769 0.175608 49.2706 0.351176 54.9298 1.81044C56.1702 2.11506 57.3519 2.62195 58.4275 3.31074C59.6701 4.12246 59.8366 5.24427 58.9291 6.39116C57.3741 8.3566 55.078 8.89927 52.8709 7.77062C50.2031 6.4208 47.3029 5.92602 44.3957 5.57488C36.8874 4.66284 29.3972 4.75405 21.9778 6.41624C20.4935 6.74685 19.0137 7.20515 17.7345 8.01231C15.7577 9.26408 12.447 7.37388 11.8063 5.87814C11.3503 4.82701 11.5167 4.11334 12.4356 3.43843C13.8561 2.39642 15.5023 1.89252 17.1964 1.52999C21.0472 0.728535 24.9599 0.2609 28.8911 0.132286C31.8096 0.0251212 34.7464 -0.0432819 39.0785 0.0274011Z" fill="#FBCA08"/>
<path d="M61.5832 36.2263C61.0634 37.0608 59.6657 37.6217 57.4312 37.8999C53.4935 38.3878 50.0072 39.2429 44.8063 41.9904C42.175 43.3813 38.6112 44.193 35.4944 44.1109H35.0611C32.0651 44.1109 28.7042 43.3106 26.1938 41.9858C20.9929 39.2497 17.5067 38.3833 13.5689 37.8953C11.3344 37.6172 9.939 37.0563 9.41458 36.2218C9.32599 36.0939 9.26451 35.9492 9.23392 35.7967C9.20333 35.6441 9.20429 35.4869 9.23673 35.3348C9.25497 35.0521 9.53543 33.3671 13.5689 33.041C17.7552 32.7081 21.173 31.5977 26.1847 28.9528C28.8137 27.5642 32.382 26.7502 35.4966 26.8346C38.5976 26.7502 42.1659 27.5642 44.7972 28.9528C49.8134 31.5977 53.2335 32.7081 57.4129 33.041C61.4578 33.3671 61.7451 35.0521 61.7451 35.3348C61.7805 35.4866 61.7844 35.644 61.7566 35.7973C61.7287 35.9507 61.6697 36.0967 61.5832 36.2263Z" fill="white"/>
<path d="M32.8152 39.5803V40.1891H31.4244V41.5777H30.8179V40.1891H29.427V39.5803H30.8179V38.1895H31.4244V39.5803H32.8152Z" fill="#DF0914"/>
<path d="M41.605 39.5803V40.1891H40.2142V41.5777H39.6054V40.1891H38.2168V39.5803H39.6054V38.1895H40.2142V39.5803H41.605Z" fill="#DF0914"/>
<path d="M32.8152 30.7585V31.3672H31.4244V32.7558H30.8179V31.3672H29.427V30.7585H30.8179V29.3699H31.4244V30.7585H32.8152Z" fill="#DF0914"/>
<path d="M41.605 30.7585V31.3672H40.2142V32.7558H39.6054V31.3672H38.2168V30.7585H39.6054V29.3699H40.2142V30.7585H41.605Z" fill="#DF0914"/>
<path d="M41.5707 35.061V35.8682H35.8865V41.5524H35.0793V35.8682H29.395V35.061H35.0793V29.3767H35.8865V35.061H41.5707Z" fill="#DF0914"/>
<path d="M14.1479 34.4637C13.9143 34.4877 13.6953 34.5888 13.5255 34.751C13.6543 34.9622 13.72 35.2059 13.7147 35.4533C13.7211 35.6178 13.6939 35.782 13.6347 35.9357C13.5755 36.0894 13.4856 36.2294 13.3704 36.3471C13.2561 36.4613 13.1197 36.551 12.9696 36.6106C12.8194 36.6702 12.6586 36.6984 12.4971 36.6937C12.3326 36.7005 12.1685 36.6717 12.0162 36.6091C11.8639 36.5465 11.7269 36.4517 11.6147 36.3311C11.4096 36.0851 11.3011 35.7728 11.3095 35.4527C11.3179 35.1325 11.4426 34.8263 11.6603 34.5914C11.781 34.4751 11.9241 34.3845 12.0809 34.3253C12.2377 34.2661 12.4049 34.2395 12.5724 34.2471C12.7224 34.2425 12.8717 34.2694 13.0107 34.3259C13.1497 34.3825 13.2753 34.4675 13.3795 34.5754C13.3795 34.5504 13.4639 34.4934 13.6235 34.409C13.8135 34.3043 14.0267 34.2486 14.2437 34.2471C14.3864 34.2439 14.5282 34.2704 14.6601 34.3249C14.792 34.3795 14.9111 34.4609 15.0098 34.564C15.1157 34.6754 15.1983 34.8068 15.2527 34.9505C15.3071 35.0942 15.3323 35.2473 15.3267 35.4008C15.3303 35.5716 15.2999 35.7414 15.2373 35.9003C15.1747 36.0593 15.0811 36.2042 14.9619 36.3266C14.8596 36.4429 14.7337 36.5362 14.5926 36.6003C14.4514 36.6644 14.2983 36.6978 14.1434 36.6982C14.1434 36.6982 14.1274 36.6982 14.1274 36.6686L14.3691 36.5204C14.5003 36.4311 14.6088 36.3124 14.686 36.1738C14.7986 35.9687 14.8545 35.7373 14.8479 35.5034C14.8516 35.2647 14.7935 35.0291 14.6792 34.8194C14.6337 34.7157 14.5595 34.6272 14.4654 34.5642C14.3713 34.5012 14.2611 34.4663 14.1479 34.4637ZM13.2359 35.5696C13.2428 35.307 13.1799 35.0474 13.0535 34.8171C12.9997 34.7096 12.917 34.6191 12.8147 34.5559C12.7125 34.4927 12.5946 34.4592 12.4743 34.4592C12.369 34.4558 12.2646 34.4809 12.1723 34.5319C12.08 34.5828 12.0032 34.6578 11.9499 34.7487C11.8402 34.9349 11.7856 35.1484 11.7926 35.3644C11.7831 35.632 11.8453 35.8973 11.9727 36.1328C12.0287 36.2424 12.1144 36.3342 12.22 36.3975C12.3257 36.4608 12.447 36.4931 12.5701 36.4907C12.6734 36.4956 12.7761 36.472 12.867 36.4226C12.9578 36.3731 13.0334 36.2997 13.0854 36.2103C13.194 36.0149 13.2454 35.7928 13.2336 35.5696H13.2359Z" fill="#0D0802"/>
<path d="M18.6854 34.5321C18.7835 34.6388 18.8595 34.7638 18.9092 34.9C18.9589 35.0362 18.9813 35.1808 18.9749 35.3256C18.9538 35.7262 18.781 36.1036 18.4915 36.3813C18.678 36.2248 18.9064 36.1264 19.1482 36.0986L19.1779 36.1191L19.1368 36.3471H19.1117C18.984 36.3471 18.9316 36.3471 18.9521 36.3471C18.7478 36.3744 18.5505 36.4401 18.3707 36.5409C18.2886 36.5911 18.2248 36.6321 18.1792 36.6663H18.1336L18.0218 36.5797V36.5363C18.1831 36.3915 18.3103 36.2127 18.3943 36.0128C18.4782 35.8129 18.5169 35.5969 18.5075 35.3803C18.5214 35.1316 18.4619 34.8842 18.3365 34.6689C18.3038 34.6067 18.2555 34.554 18.1964 34.5161C18.1372 34.4781 18.0692 34.4561 17.999 34.4523C17.6844 34.4523 17.5271 34.7214 17.5225 35.2595V35.5422L17.4815 35.5582H17.1394L17.0984 35.5422V35.2527C17.0984 34.7168 16.9456 34.4478 16.6424 34.4478C16.5736 34.4504 16.5066 34.4704 16.4476 34.5059C16.3886 34.5413 16.3395 34.5912 16.3049 34.6507C16.1764 34.8597 16.1158 35.1035 16.1316 35.3484C16.1307 35.5829 16.1756 35.8152 16.2639 36.0324C16.332 36.221 16.4493 36.3879 16.6036 36.5158V36.5591L16.4896 36.6663H16.444C16.2447 36.5522 16.0721 36.3967 15.9378 36.2103C15.7588 35.9689 15.6621 35.6763 15.6619 35.3758C15.6571 35.2235 15.6829 35.0718 15.7377 34.9296C15.7926 34.7875 15.8753 34.6577 15.9812 34.5481C16.0645 34.4545 16.1662 34.379 16.2799 34.3265C16.3937 34.2739 16.5171 34.2453 16.6424 34.2426C16.7329 34.2361 16.8237 34.2495 16.9084 34.2819C16.9932 34.3143 17.0697 34.3649 17.1328 34.4301C17.1958 34.4953 17.2438 34.5736 17.2733 34.6594C17.3029 34.7452 17.3132 34.8364 17.3036 34.9266C17.309 34.9243 17.3148 34.9231 17.3207 34.9231C17.3266 34.9231 17.3324 34.9243 17.3378 34.9266C17.3337 34.8255 17.3539 34.7249 17.3967 34.6332C17.4396 34.5416 17.5038 34.4615 17.5841 34.3999C17.7072 34.3001 17.8611 34.2461 18.0196 34.2471C18.1444 34.2448 18.2683 34.2691 18.383 34.3182C18.4978 34.3673 18.6009 34.4402 18.6854 34.5321Z" fill="#0D0802"/>
<path d="M19.4493 34.0055C19.4362 33.7382 19.46 33.4705 19.52 33.2097C19.5443 33.1272 19.5964 33.0556 19.6675 33.007C19.7385 32.9584 19.8241 32.9358 19.9099 32.943C20.0571 32.9578 20.2024 32.9884 20.3431 33.0342C20.517 33.0878 20.6971 33.1184 20.8789 33.1254C21.0969 33.1131 21.3092 33.0507 21.4991 32.943L21.5128 32.9794C21.5014 33.12 21.4427 33.2526 21.3463 33.3557C21.3001 33.4052 21.2439 33.4445 21.1814 33.4708C21.1189 33.4971 21.0516 33.5099 20.9838 33.5084C20.8848 33.5077 20.7871 33.4868 20.6965 33.4469L20.4434 33.3146L20.2473 33.2075C20.1767 33.1711 20.0987 33.1516 20.0193 33.1504C19.9418 33.1504 19.8939 33.2371 19.8802 33.4127C19.8802 33.4423 19.8802 33.6042 19.8802 33.8983V34.5276C20.0754 34.3596 20.3208 34.261 20.5779 34.2472C20.7261 34.2413 20.8739 34.2669 21.0114 34.3223C21.149 34.3777 21.2733 34.4617 21.376 34.5687C21.5846 34.8024 21.6934 35.1085 21.6792 35.4214C21.6916 35.7536 21.5803 36.0786 21.3669 36.3335C21.2677 36.4492 21.144 36.5413 21.0048 36.6032C20.8656 36.6651 20.7143 36.6953 20.562 36.6914C20.405 36.7025 20.2476 36.678 20.1014 36.6195C19.9553 36.5611 19.8244 36.4703 19.7183 36.354C19.5272 36.1062 19.4324 35.7976 19.4516 35.4853L19.4493 34.0055ZM21.1913 35.5172C21.2041 35.2693 21.1645 35.0214 21.075 34.7898C21.0275 34.6842 20.9486 34.5958 20.8491 34.5366C20.7495 34.4775 20.6341 34.4504 20.5187 34.4592C20.274 34.4719 20.044 34.58 19.878 34.7602V35.7862C19.8801 35.9322 19.9235 36.0745 20.0034 36.1967C20.0578 36.2863 20.135 36.36 20.2271 36.4102C20.3192 36.4604 20.4229 36.4854 20.5277 36.4826C20.6326 36.4798 20.7348 36.4494 20.8241 36.3944C20.9134 36.3393 20.9866 36.2617 21.0362 36.1693C21.1432 35.9722 21.1967 35.7505 21.1913 35.5263V35.5172Z" fill="#0D0802"/>
<path d="M23.0517 36.6937C22.7588 36.6689 22.4871 36.5306 22.2947 36.3083C22.1054 36.0776 22.0065 35.7858 22.0166 35.4875C22.0125 35.3177 22.0464 35.1491 22.1158 34.994C22.1852 34.839 22.2884 34.7014 22.4179 34.5914C22.678 34.3605 23.0164 34.2374 23.3641 34.2471C23.7001 34.2337 24.0278 34.3533 24.2761 34.58C24.3916 34.6923 24.482 34.8277 24.5414 34.9775C24.6007 35.1272 24.6277 35.2878 24.6204 35.4487C24.6208 35.7485 24.5085 36.0374 24.3058 36.2582C24.1263 36.4709 23.882 36.6191 23.6104 36.68V36.6458C23.6497 36.5979 23.6941 36.5543 23.7426 36.5158C23.8483 36.4196 23.9349 36.3043 23.998 36.1761C24.0979 35.9711 24.1471 35.7451 24.1416 35.5171C24.1519 35.2465 24.0717 34.9801 23.9136 34.7601C23.8437 34.663 23.751 34.5845 23.6437 34.5316C23.5363 34.4787 23.4176 34.4531 23.298 34.4569C23.1785 34.4511 23.0594 34.4752 22.9515 34.5269C22.8437 34.5787 22.7504 34.6565 22.6801 34.7533C22.5414 34.9537 22.4718 35.1938 22.4817 35.4373C22.4637 35.6763 22.5087 35.9158 22.6124 36.1319C22.716 36.348 22.8746 36.5331 23.0723 36.6686C23.066 36.6774 23.0592 36.6858 23.0517 36.6937Z" fill="#0D0802"/>
<path d="M25.5304 35.8499C25.5301 36.0047 25.5823 36.155 25.6786 36.2763C25.7246 36.341 25.7855 36.3939 25.8561 36.4303C25.9267 36.4668 26.005 36.4859 26.0844 36.4861C26.1878 36.4974 26.2924 36.4824 26.3884 36.4426C26.4845 36.4027 26.5689 36.3392 26.6339 36.2581C26.7379 36.077 26.7855 35.869 26.7707 35.6607C26.7779 35.4526 26.734 35.246 26.6431 35.0587C26.576 34.9462 26.4997 34.8395 26.415 34.7395C26.3394 34.6628 26.2934 34.5619 26.2851 34.4545C26.2866 34.3837 26.309 34.3149 26.3496 34.2569C26.3902 34.1988 26.4471 34.1542 26.5131 34.1285C26.6329 34.0643 26.767 34.0314 26.903 34.0327L26.9189 34.0783C26.8401 34.1066 26.7727 34.1602 26.7274 34.2307C26.682 34.3012 26.6612 34.3847 26.6681 34.4682C26.7003 34.6873 26.8046 34.8895 26.9645 35.0428C27.128 35.2036 27.2324 35.4149 27.261 35.6424C27.2661 35.7936 27.2365 35.944 27.1744 36.0819C27.1124 36.2199 27.0195 36.3417 26.903 36.4382C26.6708 36.6178 26.3821 36.7084 26.089 36.6936C25.9552 36.702 25.8211 36.6827 25.6951 36.6368C25.5692 36.5909 25.4541 36.5194 25.3571 36.4268C25.2675 36.3259 25.1989 36.2083 25.155 36.0807C25.1112 35.9531 25.0931 35.8181 25.1017 35.6835V33.7682C25.1059 33.6135 25.0835 33.4593 25.0356 33.3122C25.0075 33.2299 24.9588 33.1561 24.8942 33.0979L24.7551 32.9975C24.7551 32.9975 24.7734 32.9816 24.7734 32.961C24.8591 32.9378 24.9469 32.9233 25.0356 32.9177C25.0998 32.9186 25.1631 32.9324 25.2219 32.9582C25.2806 32.9841 25.3336 33.0215 25.3776 33.0682C25.4261 33.1153 25.4646 33.1717 25.4908 33.234C25.5171 33.2962 25.5305 33.3632 25.5304 33.4307V35.8499Z" fill="#0D0802"/>
<path d="M46.5572 35.7246C46.5603 35.8679 46.5302 36.01 46.4693 36.1397C46.4083 36.2694 46.3183 36.3833 46.2061 36.4725C45.9577 36.6673 45.6482 36.7675 45.3328 36.7552C45.1802 36.7619 45.0279 36.735 44.8869 36.6762C44.7458 36.6175 44.6194 36.5285 44.5166 36.4155C44.3652 36.2673 44.2769 36.0663 44.2703 35.8546C44.2579 35.692 44.304 35.5302 44.4003 35.3986C44.4778 35.3189 44.5732 35.2588 44.6784 35.223L44.7058 35.2413C44.6898 35.4123 44.6807 35.5377 44.6807 35.622C44.6779 35.8441 44.744 36.0616 44.87 36.2445C44.9261 36.3349 45.0043 36.4096 45.0972 36.4615C45.1902 36.5133 45.2948 36.5407 45.4012 36.5409C45.4987 36.5472 45.596 36.5275 45.6833 36.4838C45.7707 36.4401 45.8448 36.3741 45.8983 36.2924C45.9944 36.1332 46.0412 35.9491 46.0328 35.7634C46.0435 35.5568 46.0109 35.3502 45.9371 35.1569C45.8974 35.0647 45.8299 34.9873 45.7441 34.9353C45.6582 34.8834 45.5583 34.8596 45.4582 34.8673H45.1481L45.1162 34.8331V34.6872L45.1573 34.6553H45.4309C45.5547 34.6579 45.6753 34.6158 45.7706 34.5367C45.8284 34.4892 45.8743 34.4287 45.9044 34.3602C45.9345 34.2917 45.948 34.217 45.9439 34.1423C45.9461 34.0598 45.9192 33.9792 45.8679 33.9145C45.8167 33.8499 45.7443 33.8054 45.6634 33.7888C45.4947 33.7341 45.3693 33.6976 45.2918 33.6771C45.1912 33.6546 45.0939 33.6194 45.0022 33.5722C44.9518 33.5457 44.91 33.5056 44.8813 33.4564C44.8527 33.4072 44.8385 33.3509 44.8403 33.2941C44.8489 33.1875 44.8842 33.0847 44.9429 32.9954H44.9908C44.9897 33.0981 45.029 33.1972 45.1003 33.2713C45.1862 33.3294 45.2832 33.369 45.3853 33.3875L45.912 33.5152C46.0324 33.5459 46.1435 33.6054 46.2358 33.6885C46.286 33.732 46.3261 33.786 46.3533 33.8467C46.3804 33.9073 46.394 33.9732 46.3931 34.0396C46.3931 34.3611 46.2038 34.5869 45.8253 34.7237V34.7579C46.0113 34.8038 46.1795 34.9037 46.3087 35.0452C46.3935 35.136 46.4592 35.243 46.5019 35.3597C46.5446 35.4764 46.5634 35.6005 46.5572 35.7246Z" fill="#0D0802"/>
<path d="M50.4632 36.7143C50.4697 36.9001 50.4317 37.0847 50.3523 37.2529C50.273 37.4211 50.1547 37.5678 50.0072 37.681C49.6477 37.9347 49.2129 38.0592 48.7736 38.0344C47.7727 38.0344 47.2733 37.7517 47.2733 37.1908C47.2709 37.0988 47.2918 37.0077 47.334 36.926C47.3763 36.8443 47.4386 36.7746 47.515 36.7234C47.6131 36.6467 47.7327 36.6028 47.8571 36.598L47.873 36.6436C47.7879 36.7811 47.7392 36.938 47.7316 37.0996C47.7311 37.2098 47.7607 37.318 47.8174 37.4125C47.8741 37.507 47.9556 37.5841 48.0531 37.6354C48.2844 37.768 48.5483 37.8328 48.8147 37.8224C49.1233 37.8368 49.4272 37.7433 49.6743 37.5579C49.7925 37.462 49.8864 37.3395 49.9482 37.2004C50.01 37.0613 50.0381 36.9096 50.03 36.7576V34.8947C50.03 34.6052 49.9205 34.4615 49.6971 34.4615C49.4736 34.4615 49.3437 34.6143 49.3437 34.9175V35.4192L49.2958 35.4511H48.9675L48.915 35.4192V34.9791C48.915 34.6325 48.8033 34.4592 48.5776 34.4592C48.4795 34.4592 48.4043 34.5231 48.3496 34.6508C48.3496 34.6508 48.3108 34.7716 48.2469 34.9814C48.2156 35.1455 48.1267 35.293 47.9963 35.3975C47.8659 35.502 47.7026 35.5566 47.5356 35.5514C47.3463 35.563 47.1601 35.4991 47.018 35.3736C46.958 35.3142 46.911 35.243 46.88 35.1645C46.849 35.086 46.8346 35.0019 46.8378 34.9175C46.8402 34.8424 46.8578 34.7684 46.8895 34.7003C46.9213 34.6321 46.9665 34.571 47.0225 34.5208C47.071 34.4631 47.1331 34.4183 47.2031 34.3905C47.2731 34.3626 47.349 34.3526 47.4238 34.3612L47.4466 34.3863C47.3446 34.5432 47.2849 34.7239 47.2733 34.9107C47.2702 35.0123 47.2938 35.1129 47.3417 35.2026C47.3666 35.2481 47.4037 35.2859 47.4488 35.3117C47.4939 35.3375 47.5452 35.3502 47.5971 35.3485C47.6428 35.3485 47.6874 35.3349 47.7252 35.3092C47.763 35.2836 47.7923 35.2473 47.8092 35.2048C47.8251 35.1752 47.8593 35.084 47.9141 34.9335C47.9576 34.7799 48.0196 34.6321 48.0987 34.4934C48.1581 34.4159 48.236 34.3544 48.3252 34.3146C48.4144 34.2747 48.5121 34.2579 48.6095 34.2654C48.7087 34.2594 48.8074 34.2833 48.8928 34.3341C48.9782 34.385 49.0464 34.4603 49.0883 34.5504H49.1362C49.1949 34.4569 49.2778 34.381 49.3761 34.3308C49.4745 34.2806 49.5846 34.258 49.6948 34.2654C50.204 34.2654 50.4594 34.4934 50.4609 34.9495L50.4632 36.7143Z" fill="#0D0802"/>
<path d="M52.8665 32.9702L52.887 32.9429C53.2199 32.9657 53.3863 33.0455 53.3863 33.1868C53.3863 33.3282 53.2131 33.4513 52.871 33.5266C52.187 33.6748 51.731 33.937 51.503 34.3109V34.3246C51.6128 34.2754 51.7315 34.2491 51.8518 34.2471C51.9367 34.2447 52.0211 34.2602 52.0996 34.2924C52.1781 34.3246 52.2491 34.3728 52.3079 34.4341C52.3698 34.5006 52.4178 34.5789 52.4491 34.6642C52.4804 34.7496 52.4944 34.8403 52.4903 34.9311C52.502 34.9357 52.515 34.9357 52.5267 34.9311C52.5217 34.83 52.541 34.7292 52.5831 34.6372C52.6251 34.5451 52.6887 34.4645 52.7684 34.4021C52.8992 34.3016 53.0595 34.2471 53.2245 34.2471C53.3459 34.2457 53.4662 34.2709 53.5769 34.3209C53.6876 34.3709 53.786 34.4446 53.8652 34.5367C54.0558 34.7524 54.1563 35.0333 54.1456 35.321C54.1456 35.7998 53.8804 36.2475 53.3499 36.664H53.3088L53.1925 36.5773V36.534C53.3575 36.3863 53.4867 36.203 53.5705 35.998C53.6542 35.793 53.6903 35.5716 53.6759 35.3507C53.6905 35.1056 53.6292 34.862 53.5003 34.6529C53.4671 34.5942 53.4196 34.5449 53.3622 34.5094C53.3048 34.4739 53.2394 34.4535 53.172 34.45C52.8574 34.45 52.7 34.7191 52.6978 35.2617V35.5445L52.6544 35.5604H52.3101L52.2691 35.5445V35.2549C52.2691 34.7191 52.1232 34.45 51.829 34.45C51.7462 34.4538 51.6662 34.4814 51.5986 34.5296C51.5311 34.5777 51.4789 34.6443 51.4483 34.7213C51.3486 34.9166 51.3 35.1339 51.3069 35.3529C51.2906 35.5706 51.3243 35.7891 51.4053 35.9918C51.4863 36.1945 51.6125 36.3761 51.7743 36.5226V36.5591L51.6649 36.6731H51.6238C51.3748 36.5341 51.1683 36.3299 51.0265 36.0825C50.8848 35.8351 50.813 35.5537 50.8189 35.2686C50.8141 34.8228 50.9769 34.3916 51.275 34.0601C51.415 33.8949 51.5833 33.7559 51.772 33.6497C51.968 33.5453 52.1724 33.4576 52.3831 33.3875L52.7046 33.278C52.8209 33.2256 52.8802 33.1618 52.8802 33.0888C52.8855 33.0488 52.8808 33.008 52.8665 32.9702Z" fill="#0D0802"/>
<path d="M55.5523 36.6936C55.259 36.668 54.9869 36.5299 54.793 36.3082C54.6045 36.0772 54.5065 35.7854 54.5171 35.4874C54.5128 35.3178 54.5463 35.1493 54.6154 34.9942C54.6844 34.8392 54.7872 34.7016 54.9162 34.5913C55.1769 34.3599 55.5162 34.2367 55.8647 34.247C56.0311 34.2399 56.1973 34.2656 56.3538 34.3227C56.5103 34.3798 56.654 34.4672 56.7767 34.5799C56.8926 34.692 56.9835 34.8274 57.0432 34.9771C57.1029 35.1268 57.1302 35.2876 57.1233 35.4486C57.1237 35.7484 57.0114 36.0373 56.8086 36.2581C56.6317 36.4683 56.3919 36.6161 56.1246 36.6799V36.6457C56.1246 36.6457 56.1657 36.5955 56.2569 36.5157C56.3619 36.4189 56.4484 36.3038 56.5122 36.176C56.6103 35.9704 56.6587 35.7447 56.6536 35.517C56.6639 35.2464 56.5837 34.98 56.4256 34.76C56.3551 34.663 56.2619 34.5846 56.1542 34.5318C56.0466 34.4789 55.9276 34.4532 55.8077 34.4568C55.6882 34.4512 55.5692 34.4754 55.4614 34.5271C55.3535 34.5788 55.2602 34.6565 55.1898 34.7532C55.0532 34.9546 54.9837 35.194 54.9914 35.4372C54.9734 35.6762 55.0184 35.9157 55.1221 36.1318C55.2257 36.3479 55.3843 36.533 55.582 36.6685C55.5729 36.6778 55.563 36.6862 55.5523 36.6936Z" fill="#0D0802"/>
<path d="M53.7055 52.7773C54.4123 51.5438 56.0016 50.8712 57.3149 50.5611C59.3989 50.0686 61.2731 50.878 62.2946 52.5037C64.1666 55.4861 63.5282 58.7968 60.6689 60.6756C59.4226 61.5325 57.9324 61.9629 56.4211 61.9023C53.7009 61.7997 52.0023 60.5502 51.3684 57.8756C50.5612 54.4783 49.9365 51.0353 49.102 47.6448C48.4043 44.813 50.6023 42.4394 53.4592 42.2775C53.6395 42.273 53.8198 42.2867 53.9973 42.3185C55.8921 42.5853 57.6455 42.1931 58.8106 40.3987C59.4947 42.2934 58.8448 43.6091 57.1439 44.081C56.0038 44.398 55.1465 44.1814 53.8742 44.1403C52.6931 44.1038 52.0228 44.7765 52.0912 45.88C52.1419 46.2989 52.2265 46.713 52.3443 47.1181C52.7593 48.8054 53.3224 51.1858 53.7055 52.7773ZM60.0556 55.4245C59.9347 55.0187 59.8276 54.606 59.6862 54.2138C59.1618 52.8594 58.1015 52.2985 56.9273 52.4672C55.3426 52.6953 54.3576 53.735 54.3872 55.0985C54.4372 56.3334 54.7244 57.5473 55.2332 58.6737C55.4817 59.2004 56.1087 59.8844 56.7814 59.9825C58.9885 60.3017 60.4295 58.8812 60.3064 56.7607C60.2462 56.3112 60.1625 55.8652 60.0556 55.4245Z" fill="#0D0802"/>
<path d="M19.6591 63.5715L16.467 62.5295L15.0624 53.2906L11.0335 55.5228C11.484 56.0349 11.7345 56.6925 11.7386 57.3745C11.7428 58.0566 11.5005 58.7172 11.0563 59.2348C10.0667 60.3384 8.5345 60.5914 7.01367 59.4514L7.78663 58.1449C8.71463 58.8016 9.45338 58.7674 9.89116 58.1882C9.98322 58.0683 10.052 57.9322 10.0941 57.7869C10.4293 56.6469 9.60158 56.1179 8.98368 55.7098C8.43189 55.272 8.68498 54.7453 9.09996 54.5081L9.83415 54.0521L14.7478 51.2909C14.7478 51.2909 13.9383 46.0467 13.553 43.5021C13.439 42.7451 13.7263 41.7761 14.237 41.3474L16.7657 42.1865C16.5715 42.6815 16.5201 43.2211 16.6174 43.7438L17.5067 49.5489L21.5903 47.1548C22.0281 46.8972 22.2493 46.7125 22.3587 46.4936C22.443 46.3168 22.4681 46.1175 22.4303 45.9254C22.3925 45.7332 22.2939 45.5583 22.149 45.4265C21.5174 44.8633 20.236 44.8519 20.236 44.8519L20.8083 43.2901C21.5876 43.4031 22.3492 43.6154 23.0747 43.9216C25.1997 44.9226 24.7825 47.3783 23.248 48.3519L17.8145 51.544L19.6591 63.5715Z" fill="#0D0802"/>
<path d="M44.8912 45.4989L41.8684 45.9114L44.3786 64.3078L47.4013 63.8953L44.8912 45.4989Z" fill="#0D0802"/>
<path d="M37.4621 64.7936L34.653 64.7366C34.6416 63.9294 34.7465 58.3637 34.8172 54.8888C34.8628 52.8367 34.9038 51.0377 34.9198 50.4061C34.9198 50.34 34.9198 49.583 34.9198 49.5807C34.8901 48.0736 33.8344 47.3463 32.2908 47.3166C30.7472 47.287 29.5821 48.0485 29.4954 49.5534C29.4954 49.6058 29.4772 50.3035 29.4772 50.3719C29.4658 50.926 29.4316 52.7774 29.3951 54.8432C29.3404 57.6637 29.2834 60.8786 29.2697 61.7154C29.2697 62.0278 29.1557 62.892 28.8365 63.3594C28.5788 63.7379 28.271 64.1483 27.7352 64.3216C26.873 64.5305 25.9804 64.5838 25.0994 64.4789L24.9307 62.8236C24.9307 62.8236 25.6284 62.6868 25.7811 62.6434C26.0662 62.5613 26.6453 62.4451 26.6635 61.4715L26.8368 52.1983C26.8482 51.5872 26.8368 51.0993 26.8687 50.5908V50.5452C26.9736 47.3759 29.3016 45.8505 32.2657 45.9052C35.2299 45.96 37.8018 47.442 37.738 50.7482C37.738 50.7732 37.738 50.7983 37.738 50.8234V50.9214C37.6878 52.7843 37.4666 64.659 37.4621 64.7936Z" fill="#0D0802"/>
<path d="M29.6799 17.6958L30.7789 17.5408C31.1004 19.7935 31.4083 22.0326 31.7389 24.3469L30.633 24.5042L30.5874 24.128C30.3389 24.5247 29.8145 24.812 28.9913 24.7732C28.5995 24.7611 28.2238 24.6148 27.927 24.3587C27.6302 24.1026 27.4304 23.7523 27.3611 23.3664C27.3611 23.3801 26.7272 18.9088 26.7272 18.9088C26.7005 18.7683 26.7072 18.6235 26.7468 18.486C26.7865 18.3486 26.8578 18.2224 26.9552 18.1176L28.0383 17.9649C27.8103 18.5007 27.906 18.8404 27.979 19.4036C28.1508 20.6835 28.3324 21.9619 28.5239 23.2387C28.6334 23.957 29.0073 24.2306 29.5819 24.1348C30.2659 24.0208 30.4939 23.526 30.4119 22.9378C30.2203 21.4762 29.6799 17.6958 29.6799 17.6958Z" fill="#0D0802"/>
<path d="M57.3581 22.8581L58.3864 23.2776C57.5291 25.3867 56.6673 27.4775 55.7871 29.6414L54.7543 29.2218L54.9025 28.873C54.4898 29.101 53.8878 29.0805 53.1969 28.6244C52.8645 28.4174 52.6134 28.1021 52.4859 27.7318C52.3584 27.3614 52.3623 26.9584 52.497 26.5906C52.497 26.602 54.1933 22.418 54.1933 22.418C54.2421 22.283 54.3221 22.1615 54.4266 22.0632C54.5312 21.965 54.6575 21.8928 54.7953 21.8525L55.8077 22.2652C55.3334 22.6095 55.2513 22.9493 55.0324 23.4805C54.5354 24.6707 54.0489 25.8663 53.5732 27.0671C53.3041 27.7512 53.4888 28.1684 54.0292 28.3759C54.6722 28.6176 55.1213 28.3075 55.3494 27.758C55.9217 26.4059 57.3581 22.8581 57.3581 22.8581Z" fill="#0D0802"/>
<path d="M62.4952 25.3958L63.4961 25.8792C62.5066 27.9313 61.517 29.9606 60.5001 32.0651L59.4968 31.5795L59.6656 31.242C59.2415 31.4313 58.6395 31.3857 57.9806 30.8863C57.6616 30.6586 57.4309 30.328 57.327 29.9501C57.2232 29.5722 57.2527 29.1701 57.4105 28.8114L59.3714 24.7551C59.4288 24.6239 59.5163 24.508 59.6269 24.4169C59.7374 24.3258 59.8678 24.262 60.0076 24.2307L60.9926 24.705C60.4955 25.0173 60.3929 25.3594 60.1421 25.8678C59.5706 27.0261 59.0089 28.189 58.4571 29.3564C58.147 30.0153 58.3066 30.4508 58.8379 30.6902C59.4649 30.973 59.9323 30.6902 60.1945 30.159C60.8398 28.8342 62.4952 25.3958 62.4952 25.3958Z" fill="#0D0802"/>
<path d="M62.2855 23.1407C62.1004 23.1049 61.9087 23.1253 61.7353 23.1994C61.5619 23.2735 61.4146 23.3978 61.3125 23.5563C61.2104 23.7149 61.1581 23.9004 61.1624 24.0889C61.1666 24.2775 61.2273 24.4604 61.3365 24.6141C61.4457 24.7679 61.5985 24.8854 61.7751 24.9515C61.9517 25.0176 62.144 25.0294 62.3274 24.9852C62.5107 24.9409 62.6766 24.8428 62.8036 24.7035C62.9307 24.5641 63.0131 24.3899 63.0402 24.2033C63.0617 24.0838 63.0592 23.9613 63.0328 23.8428C63.0063 23.7243 62.9565 23.6123 62.8862 23.5134C62.8159 23.4144 62.7266 23.3305 62.6234 23.2665C62.5203 23.2025 62.4054 23.1598 62.2855 23.1407ZM62.1305 24.429C62.0117 24.4049 61.9066 24.3361 61.8369 24.237C61.7672 24.1378 61.7382 24.0157 61.7557 23.8957C61.7732 23.7758 61.8359 23.6671 61.9311 23.592C62.0262 23.5169 62.1465 23.4811 62.2673 23.4919C62.386 23.516 62.4911 23.5848 62.5608 23.6839C62.6305 23.7831 62.6596 23.9052 62.6421 24.0251C62.6245 24.1451 62.5618 24.2538 62.4666 24.3289C62.3715 24.404 62.2512 24.4398 62.1305 24.429Z" fill="#0D0802"/>
<path d="M49.7107 22.3677C50.1262 22.4726 50.5555 22.5119 50.983 22.484C51.1573 22.4687 51.3234 22.4035 51.4617 22.2964C51.5999 22.1893 51.7045 22.0447 51.7628 21.8798C51.7977 21.7332 51.794 21.5802 51.752 21.4355C51.71 21.2908 51.6313 21.1595 51.5234 21.0544L51.2954 20.7899L51.7218 20.1879C51.8641 20.2772 51.9983 20.3787 52.1231 20.4912C52.4993 20.8309 52.7569 21.2094 52.6885 21.7566C52.6042 22.4407 52.098 22.7485 51.7081 22.9537C51.5717 23.0216 51.4298 23.0781 51.284 23.1224C52.1322 23.9296 52.1664 24.8599 51.455 25.8585C51.0166 26.3944 50.4426 26.803 49.7928 27.0419L49.6355 26.3077C50.3674 25.7195 50.7345 25.1677 50.9215 24.5908C51.0132 24.3299 51 24.0436 50.8847 23.7922C50.7694 23.5408 50.5611 23.344 50.3036 23.2433C50.047 23.127 49.7662 23.0746 49.485 23.0905L48.4111 26.3488L47.3508 25.9953L49.5306 19.3831L50.5908 19.7365C50.5908 19.7365 49.9935 21.5149 49.7107 22.3677Z" fill="#0D0802"/>
<path d="M14.5492 29.3997C14.588 29.4878 14.6314 29.5738 14.6792 29.6573C14.7656 29.798 14.8632 29.9314 14.9711 30.0563L13.9724 30.5124C13.7748 30.3619 13.618 30.1644 13.5164 29.9378L11.4437 25.3776C11.3464 25.0998 11.3091 24.8044 11.3343 24.5111C11.3638 24.2514 11.4411 23.9994 11.5623 23.7678C11.7837 23.38 12.1093 23.0618 12.5022 22.8495C12.8951 22.6371 13.3396 22.539 13.7854 22.5662C14.1367 22.5753 14.4796 22.6757 14.7803 22.8576C15.0809 23.0396 15.329 23.2967 15.5 23.6037C15.6932 23.9515 15.8462 24.3202 15.9561 24.7027C16.2707 25.731 15.589 26.5746 14.4512 26.9828C14.1489 27.0938 13.8259 27.1374 13.5049 27.1105C13.8014 27.7557 14.3828 29.0257 14.5492 29.3997ZM12.9714 25.8701C13.2108 26.4013 13.733 26.529 14.2483 26.301C14.8434 26.0411 15.0782 25.7333 14.9072 25.0766C14.7869 24.7242 14.6422 24.3806 14.474 24.0483C14.3407 23.7473 14.0953 23.5101 13.79 23.3871C13.6049 23.3337 13.4096 23.3266 13.2212 23.3663C13.0327 23.4061 12.8569 23.4915 12.7092 23.6151C12.5444 23.7438 12.4289 23.9253 12.382 24.1292C12.335 24.333 12.3596 24.5467 12.4515 24.7346C12.5587 24.9535 12.9714 25.8701 12.9714 25.8701Z" fill="#0D0802"/>
<path d="M46.3135 22.1352C45.7299 21.7466 45.0245 21.5844 44.3298 21.6791C44.5282 20.8583 44.9067 19.3056 44.9933 18.943C45.0115 18.8587 45.0457 18.7401 45.0731 18.658C45.1336 18.5007 45.206 18.3483 45.2897 18.202L44.2409 17.9443C44.0715 18.1329 43.9523 18.3611 43.8943 18.6078C43.5682 19.9531 43.2376 21.3257 43.1077 21.8615C43.103 21.8781 43.0992 21.8948 43.0963 21.9117C43.0923 21.9326 43.087 21.9531 43.0803 21.9733C43.0756 21.9994 43.0695 22.0253 43.0621 22.0508C43.0611 22.0645 43.0611 22.0782 43.0621 22.0918L42.8181 23.086C42.5901 24.0299 42.8568 24.7368 43.5021 25.138C44.0538 25.4618 44.687 25.6201 45.3262 25.5941C45.729 25.5918 46.1194 25.4544 46.4348 25.2038C46.7503 24.9533 46.9725 24.6042 47.0659 24.2123C47.2004 23.8325 47.199 23.4178 47.0617 23.039C46.9245 22.6601 46.66 22.3407 46.3135 22.1352ZM46.0011 23.5716C45.9715 23.697 45.9601 23.7472 45.9281 23.8726C45.9281 23.8726 45.8871 24.0459 45.8483 24.169C45.7851 24.4131 45.6452 24.6305 45.4493 24.7892C45.1965 24.9553 44.8908 25.0212 44.592 24.9739C44.4136 24.9612 44.2434 24.8944 44.104 24.7823C43.9647 24.6703 43.8629 24.5184 43.8122 24.3469C43.7601 24.0926 43.7664 23.8299 43.8304 23.5785L43.965 23.0335C44.022 22.7911 44.1635 22.5769 44.364 22.4293C44.5244 22.3245 44.7095 22.2637 44.9007 22.2529C45.092 22.2421 45.2827 22.2817 45.4539 22.3677C45.6759 22.4676 45.8539 22.6448 45.9546 22.8664C46.0553 23.088 46.0719 23.3387 46.0011 23.5716Z" fill="#0D0802"/>
<path d="M10.1076 25.6145C9.83653 25.7643 9.53631 25.8537 9.22748 25.8767C9.1464 25.8841 9.06819 25.9105 8.99916 25.9537C8.93013 25.9968 8.87221 26.0556 8.83006 26.1253C8.78791 26.195 8.76271 26.2735 8.75649 26.3547C8.75027 26.4359 8.76321 26.5174 8.79426 26.5927C8.82342 26.6808 8.86324 26.765 8.91282 26.8435L10.0529 29.078C10.3356 29.6366 10.8965 30.7265 11.0561 31.048C11.0903 31.1141 11.1405 31.2076 11.1792 31.276C11.2619 31.3952 11.3526 31.5087 11.4506 31.6157L10.477 32.106C10.2987 31.9811 10.1538 31.8143 10.0552 31.6203L10.0141 31.5382L8.05551 27.6917L7.89134 27.3656C7.43532 26.4536 7.8161 25.4891 8.83302 25.2178C8.8923 25.2018 9.15907 25.1539 9.22292 25.1448C9.87503 25.0354 10.2467 24.9031 10.4998 24.1963C10.762 24.8096 10.6503 25.3158 10.1076 25.6145Z" fill="#0D0802"/>
<path d="M36.867 17.1531L36.9719 24.1917L35.8706 24.2077L35.825 21.1615L33.9097 21.1911C33.9234 21.955 33.9439 23.1338 33.9462 23.437C33.9462 23.5123 33.9804 23.7403 33.9872 23.8132C34.0087 23.9558 34.0399 24.0968 34.0807 24.2351L33.025 24.251C32.9201 24.0618 32.8637 23.8495 32.8608 23.6331C32.8608 23.2273 32.8472 22.7211 32.838 22.1989C32.8289 21.6768 32.8221 21.2048 32.8152 20.7556V20.7055C32.8152 20.2495 32.8038 19.7524 32.797 19.2622C32.7902 18.7719 32.7833 18.2338 32.7765 17.828C32.7737 17.6117 32.8238 17.398 32.9224 17.2055L33.9781 17.1918C33.9409 17.3311 33.9135 17.4728 33.896 17.6159C33.896 17.6889 33.8664 17.8667 33.8664 17.942C33.8664 18.2544 33.8914 19.7113 33.9028 20.498L35.8181 20.4683L35.768 17.1645L36.867 17.1531Z" fill="#0D0802"/>
<path d="M41.1899 19.1232C41.3997 18.4666 41.3153 18.1246 40.857 17.9832C40.3486 17.8122 39.7398 17.9262 39.489 18.5099C39.4096 18.6841 39.3573 18.8694 39.3339 19.0594C39.3157 19.235 39.0535 21.987 38.9805 22.6825C38.9075 23.3779 39.074 23.6629 39.6326 23.8225C39.8665 23.8861 40.116 23.8565 40.3286 23.74C40.5412 23.6235 40.7003 23.4291 40.7726 23.1978C40.9186 22.7737 40.7339 22.3724 40.7384 22.0874C40.7354 21.8467 40.7716 21.6072 40.8456 21.3783L41.956 21.49C41.9002 21.6883 41.9002 21.8982 41.956 22.0965C41.9988 22.2612 42.0225 22.4303 42.0267 22.6004C42.0267 23.4874 41.5707 24.0802 40.9847 24.315C39.8447 24.7711 38.6864 24.4518 38.1505 23.631C37.9433 23.3079 37.8465 22.9262 37.8746 22.5434L38.244 18.7539C38.2639 18.5582 38.3257 18.3692 38.4253 18.1996C38.5248 18.03 38.6598 17.8839 38.8209 17.7711C39.2158 17.4958 39.6749 17.3266 40.154 17.2798C40.6332 17.2331 41.1163 17.3104 41.557 17.5044C42.371 17.8281 42.6081 18.5099 42.241 19.4903L41.1375 19.3809L41.1899 19.1232Z" fill="#0D0802"/>
<path d="M26.383 24.1896V24.217C26.3283 25.145 25.6101 25.7127 24.8827 25.943C24.1554 26.1733 23.5147 26.2143 22.8671 25.7446C22.6017 25.5354 22.4061 25.2505 22.3063 24.9275C22.2066 24.6046 22.2073 24.259 22.3085 23.9365L23.2205 23.6857C23.33 24.0779 23.4189 24.4473 23.5352 24.8052C23.7062 25.3297 24.087 25.4893 24.4472 25.4231C25.17 25.3023 25.4528 24.9329 25.3821 24.4039C25.335 24.0961 25.2688 23.7915 25.1837 23.4919C24.999 22.7189 24.4997 22.5457 24.16 22.6391L23.5785 22.7987L23.4144 22.2036L23.656 22.1261C23.9766 22.0122 24.2432 21.783 24.4039 21.4831C24.479 21.3428 24.5182 21.1862 24.5182 21.0271C24.5182 20.868 24.479 20.7114 24.4039 20.5711C24.3291 20.4537 24.2265 20.3566 24.1052 20.2884C23.9125 20.1852 23.6931 20.1431 23.4759 20.1675C23.0853 20.2013 22.6975 20.2622 22.3153 20.3499C21.8183 20.4343 21.3531 20.4024 21.0339 19.5678L22.272 19.2258C22.5206 19.7503 23.0564 19.5952 23.5968 19.5177C23.8672 19.4729 24.1413 19.4545 24.4153 19.463C25.5166 19.5154 25.7355 20.5825 25.4391 21.2711C25.3547 21.474 25.1746 21.8502 25.1746 21.8502C25.9521 21.9619 26.4423 23.2 26.383 24.1896Z" fill="#0D0802"/>
<path d="M19.5725 20.3362L21.3578 25.1905C21.3578 25.2019 21.3578 25.2133 21.3692 25.2224C21.8252 26.5426 21.018 27.409 20.1493 27.7625C19.447 28.0498 18.8041 28.1455 18.1246 27.7305C17.8435 27.5433 17.6258 27.2754 17.5 26.962C17.3742 26.6486 17.3464 26.3044 17.42 25.9749L18.3002 25.6511C18.4392 26.0319 18.5578 26.3921 18.7037 26.741C18.9181 27.2494 19.3102 27.3726 19.6637 27.2814C20.3751 27.1035 20.6259 26.7113 20.5119 26.1915C20.4478 25.9155 20.3671 25.6437 20.2702 25.3775L19.6545 23.7016C19.1882 24.1322 18.5852 24.3848 17.9513 24.4153C17.1373 24.4449 16.5832 23.9479 16.2982 23.1749C16.2982 23.1749 16.1386 22.7417 16.0109 22.2925C15.9457 22.0903 15.9225 21.877 15.9425 21.6655L16.9891 21.2824C16.9998 21.4237 17.0211 21.5639 17.0529 21.702C17.0712 21.7726 17.11 21.9117 17.1305 21.9801C17.2268 22.3158 17.341 22.6462 17.4725 22.9697C17.6503 23.3847 17.9285 23.8065 18.405 23.7176C19.0891 23.5876 19.4288 23.0928 19.1712 22.3883L18.5578 20.7056L19.5725 20.3362Z" fill="#0D0802"/>
</g>
<defs>
<clipPath id="clip0_612_8825">
<rect width="71" height="68.9935" fill="white"/>
</clipPath>
</defs>
</svg>
