<svg width="311" height="80" viewBox="0 0 311 80" fill="none" xmlns="http://www.w3.org/2000/svg">
<path d="M310.351 0H0V51.4106H310.351V0Z" fill="white"/>
<path d="M298.359 33.4224C298.359 33.4224 298.359 22.8738 298.359 20.3199C298.359 14.657 293.695 11.77 287.921 11.77C280.704 11.77 277.484 15.5453 277.151 19.2096C278.372 19.2096 281.925 19.2096 282.814 19.2096C283.591 17.433 285.145 17.0998 287.921 17.0998C291.475 17.0998 293.029 18.0992 293.029 19.7648C293.029 20.0979 292.918 20.542 292.585 20.7641C291.919 21.3193 291.03 21.6524 290.142 21.8745C288.921 22.2076 287.588 22.2076 286.256 22.3186C285.59 22.3186 284.923 22.4297 284.257 22.4297C281.592 22.7628 275.374 23.8732 275.374 30.7575C275.374 35.3101 278.483 39.5295 285.59 39.5295C288.81 39.5295 291.808 38.086 293.251 36.7536C293.362 37.4198 293.806 38.5302 294.028 38.8633C294.806 38.8633 298.914 38.8633 299.58 38.8633C298.914 38.1971 298.359 35.088 298.359 33.4224ZM292.918 26.316C292.918 26.5381 292.918 26.6491 292.918 26.8712C292.918 27.0933 292.918 27.3153 292.918 27.4264C292.918 28.4257 292.918 29.314 292.585 30.2023C292.252 31.4237 291.252 32.4231 290.031 33.0893C288.81 33.7555 287.255 34.3107 285.478 34.3107C283.036 34.3107 280.815 32.6452 280.815 30.9796C280.815 30.2023 280.815 29.4251 281.37 28.9809C282.036 28.3147 282.814 28.0926 283.591 27.8705C284.701 27.5374 285.812 27.5374 287.033 27.4264C287.921 27.3153 288.699 27.3153 289.587 27.0933C290.697 26.8712 291.808 26.6491 292.918 26.0939C292.918 26.205 292.918 26.205 292.918 26.316Z" fill="#DB052C"/>
<path d="M160.338 28.0926C160.338 31.8679 158.451 34.3107 154.787 34.3107C151.344 34.3107 149.679 32.09 149.679 28.2036C149.679 25.7608 149.679 12.3252 149.679 12.3252H144.127C144.127 12.3252 144.127 27.4264 144.127 28.3147C144.127 33.8666 147.125 39.6405 154.231 39.6405C156.896 39.6405 158.895 38.7522 160.45 37.4198V38.9743H165.89V12.3252H160.227C160.339 12.4362 160.338 26.6491 160.338 28.0926Z" fill="#DB052C"/>
<path d="M133.8 28.0926C133.8 31.8679 132.134 34.3107 128.803 34.3107C125.583 34.3107 124.251 32.09 124.251 28.2036C124.251 25.7608 124.251 12.3252 124.251 12.3252H118.699C118.699 12.3252 118.699 26.205 118.699 28.0926C118.699 31.7569 117.033 34.1997 113.702 34.1997C110.482 34.1997 109.15 31.9789 109.15 28.0926C109.15 25.6498 109.15 12.2142 109.15 12.2142H103.598C103.598 12.2142 103.598 27.3153 103.598 28.2036C103.598 33.7555 106.374 39.5295 113.147 39.5295C116.367 39.5295 119.476 37.7529 120.809 35.7542C122.363 37.975 124.806 39.5295 128.248 39.5295C130.802 39.5295 132.356 38.6412 133.911 37.3088V38.8633H139.352V12.2142H133.689C133.8 12.4362 133.8 26.6491 133.8 28.0926Z" fill="#DB052C"/>
<path d="M274.819 11.772H267.046L257.497 21.3213V3H251.834V39.0874H257.497V26.5401L268.49 39.0874H276.262L262.494 23.6531L274.819 11.772Z" fill="#DB052C"/>
<path d="M58.073 11.77C50.4114 11.77 44.5264 18.0992 44.5264 25.7608C44.5264 33.4224 50.4114 39.7516 58.073 39.7516C65.7346 39.7516 71.6197 33.4224 71.6197 25.7608C71.6197 18.0992 65.7346 11.77 58.073 11.77ZM58.073 34.4218C53.5205 34.4218 50.0783 30.5354 50.0783 25.7608C50.0783 20.9862 53.4094 17.0998 58.073 17.0998C62.7366 17.0998 66.0678 20.9862 66.0678 25.7608C65.9567 30.4244 62.6256 34.4218 58.073 34.4218Z" fill="#DB052C"/>
<path d="M188.209 22.5406H177.217V12.4362H171.554V39.0853H177.217V27.8704H188.209V39.0853H193.872V12.4362H188.209V22.5406Z" fill="#DB052C"/>
<path d="M238.51 19.6536H232.403V12.4362H226.74V39.7515H232.403H238.51C244.062 39.7515 248.504 35.31 248.504 29.7581C248.504 24.0951 244.062 19.6536 238.51 19.6536ZM238.177 34.4217H232.403V24.9835H238.177C240.731 24.9835 242.952 27.0932 242.952 29.7581C242.841 32.312 240.731 34.4217 238.177 34.4217Z" fill="#DB052C"/>
<path d="M210.75 34.4218C206.198 34.4218 203.422 30.5354 203.422 25.7608C203.422 20.9862 206.087 17.0998 210.75 17.0998C214.526 17.0998 216.191 18.5433 216.857 20.0979H222.631C221.743 15.6563 217.301 11.77 210.75 11.77C203.089 11.77 197.759 18.0992 197.759 25.7608C197.759 33.4224 202.978 39.7516 210.75 39.7516C217.524 39.7516 221.965 35.8653 222.742 30.5354H216.968C216.413 32.6452 214.637 34.4218 210.75 34.4218Z" fill="#DB052C"/>
<path d="M87.4975 11.77C84.6105 11.77 82.2787 12.7694 80.391 14.4349C80.391 14.3239 80.391 14.1018 80.391 13.9908V12.4362H74.9502V48.5236H80.6131C80.6131 48.5236 80.6131 43.0827 80.6131 37.1977C82.3897 38.7523 84.7215 39.6406 87.4975 39.6406C95.1591 39.6406 100.267 33.3114 100.267 25.6498C100.267 18.0992 95.1591 11.77 87.4975 11.77ZM87.4975 34.4218C82.9449 34.4218 80.391 30.5354 80.391 25.7608C80.391 20.9862 82.9449 17.0998 87.4975 17.0998C92.05 17.0998 94.6039 20.9862 94.6039 25.7608C94.6039 30.4244 92.05 34.4218 87.4975 34.4218Z" fill="#DB052C"/>
<path d="M35.7542 12.4362L35.4211 12.8804L28.3147 20.542C27.6485 21.2082 27.0933 21.9855 26.6491 22.7628C26.0939 21.9855 25.5387 21.2082 24.9836 20.542L17.8771 12.8804L17.544 12.4362H12.3252V39.0854H17.9881V20.9862C17.9881 20.9862 19.9868 22.7628 21.3192 24.6504C22.7627 26.5381 24.0952 28.9809 24.5394 31.8679H26.8711H29.203C29.6471 28.9809 30.9796 26.427 32.423 24.6504C33.8665 22.7628 35.7542 20.9862 35.7542 20.9862V38.9743H41.4172V12.3252H35.7542V12.4362Z" fill="#DB052C"/>
<path d="M18.766 62.6781C21.8751 62.6781 25.2062 64.0106 25.2062 67.4527C25.2062 68.5631 24.6511 69.5625 23.3186 70.2287V70.3397C25.3173 71.117 25.9835 72.5605 25.9835 74.3371C25.9835 78.0013 22.5414 80 18.4329 80C15.3239 80 12.9921 79.1117 10.8824 76.891C10.6603 76.6689 10.6603 76.5578 10.8824 76.3358L12.1038 75.0033C12.2148 74.8923 12.4369 74.7812 12.659 75.0033C14.3245 76.6689 16.3232 77.4461 18.544 77.4461C21.2089 77.4461 23.2076 76.2247 23.2076 74.3371C23.2076 72.3384 21.7641 71.7832 19.8764 71.7832H15.9901C15.657 71.7832 15.546 71.6722 15.546 71.3391V69.5625C15.546 69.3404 15.657 69.1183 15.9901 69.1183H19.9875C21.0979 69.1183 22.3193 68.6741 22.3193 67.3417C22.3193 65.8982 20.6537 65.232 18.4329 65.232C16.4343 65.232 14.9908 65.6761 13.4362 67.0086C13.3252 67.1196 12.9921 67.2307 12.881 67.0086L11.6597 65.4541C11.5486 65.343 11.5486 65.1209 11.7707 65.0099C13.8804 63.2333 16.1011 62.6781 18.766 62.6781Z" fill="#DB052C"/>
<path d="M47.8582 62.9001C47.9692 62.9001 48.0802 63.0112 48.1913 63.1222L55.1867 79.3338C55.2977 79.5558 55.0756 79.7779 54.8536 79.7779H52.7439C52.4108 79.7779 52.1886 79.6669 52.0776 79.3338L50.8562 76.3357H41.6401L40.3076 79.4448C40.1966 79.6669 39.9745 79.7779 39.8634 79.7779H37.5317C37.1985 79.7779 37.1985 79.5558 37.3096 79.3338L44.416 63.1222C44.5271 63.0112 44.6381 62.9001 44.7491 62.9001H47.8582ZM42.7505 73.7819H49.7458L46.4147 65.454H45.9705L42.7505 73.7819Z" fill="#DB052C"/>
<path d="M66.9563 62.9001C70.6206 62.9001 73.2855 65.5651 73.2855 68.8962C73.2855 72.3384 70.6206 75.0033 66.9563 75.0033H61.6265V79.3338C61.6265 79.6669 61.5154 79.7779 61.2934 79.7779H59.2947C58.9616 79.7779 58.8506 79.6669 58.8506 79.3338V63.3443C58.8506 63.0112 58.9616 62.9001 59.2947 62.9001H66.9563ZM66.9563 72.3384C69.1771 72.3384 70.5096 70.8949 70.5096 68.8962C70.5096 66.8975 69.2881 65.454 66.9563 65.454H61.6265V72.2273H66.9563V72.3384Z" fill="#DB052C"/>
<path d="M84.7225 62.6781C89.6081 62.6781 93.3834 66.3423 93.3834 71.3391C93.3834 76.3358 89.6081 80 84.7225 80C79.8368 80 76.0615 76.3358 76.0615 71.3391C76.0615 66.3423 79.8368 62.6781 84.7225 62.6781ZM78.9485 71.3391C78.9485 74.7812 81.2803 77.3351 84.8335 77.3351C88.2757 77.3351 90.7185 74.7812 90.7185 71.3391C90.7185 67.8969 88.3867 65.232 84.8335 65.232C81.2803 65.343 78.9485 67.8969 78.9485 71.3391Z" fill="#DB052C"/>
<path d="M115.48 62.9001C115.813 62.9001 115.924 63.0112 115.924 63.3443V79.3338C115.924 79.6669 115.813 79.7779 115.48 79.7779H113.481C113.148 79.7779 113.037 79.6669 113.037 79.3338V71.8942L113.148 67.0086H113.037L110.483 73.2267L107.707 79.3338C107.596 79.6669 107.374 79.7779 107.041 79.7779H105.82C105.486 79.7779 105.375 79.6669 105.153 79.3338L102.377 73.3377L99.7125 67.1196H99.6014L99.7125 72.0053V79.4448C99.7125 79.7779 99.6014 79.889 99.3794 79.889H97.3806C97.0475 79.889 96.9365 79.7779 96.9365 79.4448V63.3443C96.9365 63.0112 97.0475 62.9001 97.3806 62.9001H100.268C100.49 62.9001 100.712 63.1222 100.823 63.3443L104.265 71.0059L106.375 75.8916H106.486L108.818 70.2287L111.927 63.4553C112.038 63.1222 112.26 63.0112 112.593 63.0112H115.48V62.9001Z" fill="#DB052C"/>
<path d="M130.026 62.9001C130.137 62.9001 130.248 63.0112 130.359 63.1222L137.355 79.3338C137.466 79.5558 137.244 79.7779 137.022 79.7779H134.912C134.579 79.7779 134.357 79.6669 134.246 79.3338L133.024 76.3357H123.808L122.476 79.4448C122.365 79.6669 122.142 79.7779 122.031 79.7779H119.7C119.367 79.7779 119.366 79.5558 119.478 79.3338L126.584 63.1222C126.695 63.0112 126.806 62.9001 126.917 62.9001H130.026ZM124.918 73.7819H131.914L128.583 65.454H128.138L124.918 73.7819Z" fill="#DB052C"/>
<path d="M152.566 62.9001C152.899 62.9001 153.01 63.0112 153.01 63.3443V65.1209C153.01 65.454 152.899 65.5651 152.566 65.5651H146.903V79.3338C146.903 79.5558 146.792 79.7779 146.459 79.7779H144.46C144.127 79.7779 144.016 79.6669 144.016 79.3338V65.5651H138.353C138.02 65.5651 137.909 65.454 137.909 65.1209V63.3443C137.909 63.0112 138.02 62.9001 138.353 62.9001H152.566Z" fill="#DB052C"/>
<path d="M163.226 62.6781C168.112 62.6781 171.887 66.3423 171.887 71.3391C171.887 76.3358 168.112 80 163.226 80C158.341 80 154.565 76.3358 154.565 71.3391C154.565 66.3423 158.341 62.6781 163.226 62.6781ZM157.341 71.3391C157.341 74.7812 159.673 77.3351 163.226 77.3351C166.669 77.3351 169.111 74.7812 169.111 71.3391C169.111 67.8969 166.78 65.232 163.226 65.232C159.784 65.343 157.341 67.8969 157.341 71.3391Z" fill="#DB052C"/>
<path d="M193.872 62.9001C194.206 62.9001 194.317 63.0112 194.317 63.3443V79.3338C194.317 79.6669 194.206 79.7779 193.872 79.7779H191.874C191.541 79.7779 191.43 79.6669 191.43 79.3338V71.8942L191.541 67.0086H191.43L188.876 73.2267L186.1 79.3338C185.989 79.6669 185.767 79.7779 185.434 79.7779H184.212C183.879 79.7779 183.768 79.6669 183.546 79.3338L180.77 73.3377L178.105 67.1196H177.994L178.105 72.0053V79.4448C178.105 79.7779 177.994 79.889 177.772 79.889H175.773C175.44 79.889 175.329 79.7779 175.329 79.4448V63.3443C175.329 63.0112 175.44 62.9001 175.773 62.9001H178.66C178.882 62.9001 179.104 63.1222 179.215 63.3443L182.658 71.0059L184.767 75.8916H184.878L187.21 70.2287L190.319 63.4553C190.43 63.1222 190.652 63.0112 190.986 63.0112H193.872V62.9001Z" fill="#DB052C"/>
</svg>
