<svg id="Layer_1" data-name="Layer 1" xmlns="http://www.w3.org/2000/svg" width="348" height="127" viewBox="0 0 116 42.37"><defs><style>.cls-1{fill:#ef3e33;}</style></defs><path class="cls-1" d="M29.61,9.53H40.27V50.94H29.61V45.35H10.54l10.7-10.13h8.37v-11L0,51.9V37.29Z" transform="translate(0 -9.53)"/><path class="cls-1" d="M51.93,20.85H43.18V10H81.4L69.91,20.85h-6.5V51.41H51.93Z" transform="translate(0 -9.53)"/><path class="cls-1" d="M105.42,20H84.07V41.45H95.63a2.53,2.53,0,0,0,1.42-.38,2.43,2.43,0,0,0,.9-1,3.44,3.44,0,0,0,.32-1.5,3,3,0,0,0-.7-2,2.49,2.49,0,0,0-1.94-.8H86.37V25.74H97.72a10.29,10.29,0,0,1,4.34.91,10.43,10.43,0,0,1,3.56,2.57,11.79,11.79,0,0,1,2.36,4,14.9,14.9,0,0,1,.87,5.23,14.33,14.33,0,0,1-.87,4.88,14,14,0,0,1-2.39,4.13,11.49,11.49,0,0,1-3.53,2.89,9.29,9.29,0,0,1-4.28,1.07H73.48V20L84.07,10H116Z" transform="translate(0 -9.53)"/></svg>
